<svg width="200" height="60" viewBox="0 0 200 60" xmlns="http://www.w3.org/2000/svg">
  <!-- Brain Icon -->
  <g transform="translate(10, 10)">
    <!-- Brain outline -->
    <path d="M15 25 Q15 15, 25 15 Q35 15, 35 25 Q35 35, 25 35 Q15 35, 15 25 Z" 
          fill="none" stroke="#4A90E2" stroke-width="2"/>
    
    <!-- Brain details -->
    <path d="M18 20 Q22 18, 26 20 Q30 22, 30 25 Q30 28, 26 30 Q22 28, 18 30 Q16 28, 16 25 Q16 22, 18 20 Z" 
          fill="none" stroke="#4A90E2" stroke-width="1"/>
    
    <!-- Neural connections -->
    <circle cx="20" cy="22" r="1" fill="#4A90E2"/>
    <circle cx="30" cy="28" r="1" fill="#4A90E2"/>
    <circle cx="25" cy="18" r="1" fill="#4A90E2"/>
    <circle cx="22" cy="32" r="1" fill="#4A90E2"/>
    
    <!-- Connection lines -->
    <line x1="20" y1="22" x2="25" y2="18" stroke="#4A90E2" stroke-width="1"/>
    <line x1="25" y1="18" x2="30" y2="28" stroke="#4A90E2" stroke-width="1"/>
    <line x1="30" y1="28" x2="22" y2="32" stroke="#4A90E2" stroke-width="1"/>
    
    <!-- Stethoscope connection -->
    <path d="M15 30 Q10 35, 8 40" fill="none" stroke="#4A90E2" stroke-width="2"/>
    <circle cx="8" cy="40" r="2" fill="#4A90E2"/>
  </g>
  
  <!-- Text "Tashkheesy" -->
  <text x="60" y="35" font-family="Arial, sans-serif" font-size="18" font-weight="bold" fill="#4A90E2">
    Tashkheesy
  </text>
</svg> 